<svg width="477.00000000000006" height="510.00000000000006" xmlns="http://www.w3.org/2000/svg">

 <g id="imagebot_2">
  <path fill-rule="evenodd" stroke="black" stroke-width="0.036" stroke-miterlimit="10" fill="#ffd4aa" d="M 41.35894180118129 268.92275944178925 C 41.35894180118129 400.79275944178926 128.47794180118126 507.7527594417893 235.93894180118127 507.7527594417893 S 430.5189418011813 400.79275944178926 430.5189418011813 268.92275944178925 C 430.5189418011813 137.02275944178925 343.3989418011813 30.06275944178924 235.93894180118127 30.06275944178924 C 128.47894180118124 30.066759441789245 41.35894180118129 137.02275944178925 41.35894180118129 268.92275944178925 L 41.35994180118132 268.92275944178925 L 41.35894180118129 268.92275944178925 z" id="imagebot_38"/>
  <path stroke="black" stroke-width="0.036" stroke-miterlimit="10" fill-rule="evenodd" d="M 56.0974418011813 223.48025944178923 C 54.87344180118129 218.62025944178924 52.677441801181295 215.16025944178924 49.3654418011813 212.68025944178925 S 41.589441801181295 208.86025944178925 36.369441801181296 208.83025944178925 C 31.005441801181295 208.72025944178924 22.761441801181295 208.54025944178923 17.613441801181295 212.18025944178925 C 12.357441801181295 215.78025944178924 8.217441801181296 222.11025944178925 5.337441801181296 230.21025944178925 C 2.313441801181296 238.20025944178923 -0.27855819881870414 250.01025944178923 0.0454418011812959 259.80025944178925 C 0.33344180118129596 269.56025944178924 2.349441801181296 280.94025944178924 7.497441801181296 287.9602594417892 C 12.573441801181296 294.87025944178924 24.489441801181297 299.30025944178925 30.609441801181298 300.7002594417892 C 36.549441801181295 301.82025944178923 40.1494418011813 298.72025944178927 43.3534418011813 295.16025944178926 C 46.5214418011813 291.56025944178924 48.4294418011813 286.26025944178923 49.3654418011813 279.2802594417892 L 56.0974418011813 223.48025944178923 z" id="imagebot_37"/>
  <path fill-rule="evenodd" fill="#ffd4aa" d="M 50.0854418011813 283.38025944178924 C 49.509441801181296 281.55025944178925 48.7894418011813 280.79025944178926 47.92544180118129 280.97025944178927 C 47.061441801181296 281.22025944178927 46.0174418011813 282.38025944178924 44.793441801181295 284.57025944178923 C 43.3534418011813 286.7002594417892 41.805441801181296 290.98025944178926 39.753441801181296 293.25025944178924 C 37.629441801181294 295.3402594417892 36.0454418011813 297.1402594417892 32.769441801181294 297.10025944178926 C 29.385441801181297 296.92025944178926 24.381441801181296 295.12025944178924 20.277441801181297 292.5302594417892 C 16.137441801181296 289.79025944178926 11.061441801181296 286.16025944178926 8.253441801181296 281.48025944178926 C 5.301441801181296 276.73025944178926 3.753441801181296 271.07025944178923 3.177441801181296 264.38025944178924 C 2.853441801181296 263.1502594417892 3.069441801181296 260.35025944178926 3.681441801181296 255.95025944178923 C 4.293441801181296 251.42025944178923 5.229441801181296 243.64025944178923 7.029441801181296 237.92025944178923 C 8.793441801181295 232.01025944178923 11.025441801181296 225.64025944178923 14.013441801181296 221.57025944178923 C 16.965441801181296 217.50025944178924 20.493441801181294 214.95025944178923 24.597441801181297 213.62025944178924 C 28.485441801181295 212.10025944178923 34.137441801181296 212.64025944178923 37.80944180118129 212.90025944178925 C 41.3374418011813 213.08025944178925 44.001441801181294 213.72025944178924 46.23344180118129 214.84025944178924 C 48.357441801181295 215.92025944178923 50.013441801181294 217.36025944178925 51.0574418011813 219.16025944178924 C 52.101441801181295 220.78025944178924 51.741441801181296 223.80025944178925 52.497441801181296 224.92025944178923 C 53.18144180118129 225.96025944178925 54.009441801181296 226.25025944178924 55.125441801181296 225.64025944178923 C 56.1334418011813 224.92025944178923 57.2134418011813 223.66025944178924 58.509441801181296 221.32025944178923 C 55.701441801181296 241.98025944178923 52.8934418011813 262.68025944178925 50.0854418011813 283.38025944178924 z" id="imagebot_36"/>
  <path stroke="black" stroke-width="0.036" stroke-miterlimit="10" fill-rule="evenodd" d="M 45.29744180118129 235.29025944178923 C 44.793441801181295 233.78025944178924 42.165441801181295 231.18025944178925 39.753441801181296 230.00025944178924 C 37.1974418011813 228.66025944178924 33.561441801181296 227.23025944178923 30.357441801181295 228.05025944178925 C 27.009441801181296 228.84025944178924 23.121441801181295 230.75025944178924 20.493441801181294 235.04025944178923 C 17.829441801181297 239.32025944178923 15.489441801181297 246.84025944178924 14.985441801181295 253.32025944178923 C 14.409441801181297 259.73025944178926 15.021441801181297 268.7702594417892 17.361441801181297 273.05025944178925 C 19.665441801181295 277.16025944178926 25.137441801181296 278.24025944178925 28.917441801181297 278.0902594417892 C 32.5174418011813 277.81025944178924 37.98944180118129 273.63025944178924 39.501441801181294 271.8302594417892 C 40.869441801181296 269.9602594417892 39.6094418011813 267.04025944178926 37.80944180118129 267.26025944178923 C 35.973441801181295 267.44025944178924 31.581441801181295 272.3302594417892 28.917441801181297 273.05025944178925 C 26.073441801181296 273.66025944178926 23.445441801181296 272.9502594417892 21.717441801181295 270.8902594417892 C 19.989441801181297 268.7002594417892 19.053441801181297 265.10025944178926 19.053441801181297 260.5302594417892 C 18.981441801181298 255.85025944178923 19.881441801181296 247.89025944178923 21.465441801181296 243.46025944178925 C 22.941441801181295 239.00025944178924 25.785441801181296 235.47025944178924 28.197441801181295 233.85025944178923 C 30.573441801181296 232.09025944178924 33.4174418011813 232.52025944178925 35.9014418011813 233.35025944178923 C 38.2774418011813 234.17025944178923 40.97744180118129 238.21025944178925 42.6334418011813 238.64025944178923 C 44.1454418011813 238.85025944178923 45.729441801181295 236.76025944178923 45.29744180118129 235.29025944178923 z" id="imagebot_35"/>
  <path stroke="black" stroke-width="0.036" stroke-miterlimit="10" fill-rule="evenodd" d="M 420.78044180118127 225.57025944178923 C 421.9604418011813 220.74025944178925 424.1604418011813 217.18025944178925 427.5104418011813 214.73025944178923 C 430.78044180118127 212.21025944178925 435.1004418011813 210.99025944178925 440.4704418011813 210.92025944178923 C 445.8004418011813 210.81025944178924 454.0004418011813 210.63025944178924 459.2604418011813 214.27025944178925 C 464.4404418011813 217.87025944178924 468.4804418011813 224.20025944178923 471.5004418011813 232.30025944178925 C 474.4204418011813 240.29025944178923 477.0104418011813 252.10025944178923 476.7904418011813 261.8902594417892 C 476.4004418011813 271.6502594417892 474.3804418011813 283.0302594417892 469.34044180118127 290.05025944178925 C 464.1604418011813 296.9602594417892 452.2004418011813 301.3902594417892 446.2604418011813 302.79025944178926 C 440.2204418011813 303.9002594417892 436.6204418011813 300.81025944178924 433.5204418011813 297.24025944178925 C 430.3204418011813 293.6402594417892 428.4104418011813 288.35025944178926 427.5104418011813 281.37025944178924 L 420.78044180118127 225.57025944178923 z" id="imagebot_34"/>
  <path fill-rule="evenodd" fill="#ffd4aa" d="M 426.7904418011813 285.47025944178927 C 427.3304418011813 283.6402594417892 428.0504418011813 282.88025944178924 428.9504418011813 283.06025944178924 C 429.7004418011813 283.31025944178924 430.7504418011813 284.4602594417892 432.0804418011813 286.66025944178926 C 433.4804418011813 288.7802594417892 435.03044180118127 293.07025944178923 437.1204418011813 295.3402594417892 C 439.1704418011813 297.43025944178925 440.7204418011813 299.23025944178926 444.1004418011813 299.19025944178924 C 447.3804418011813 299.01025944178923 452.4204418011813 297.2102594417892 456.6004418011813 294.62025944178924 C 460.6304418011813 291.92025944178926 465.7404418011813 288.18025944178925 468.6204418011813 283.5302594417892 C 471.5404418011813 278.74025944178925 473.0504418011813 273.2002594417892 473.7004418011813 266.47025944178927 C 473.9804418011813 265.24025944178925 473.7704418011813 262.44025944178924 473.1904418011813 258.04025944178926 C 472.4704418011813 253.51025944178923 471.5404418011813 245.73025944178923 469.84044180118127 240.01025944178923 C 468.0404418011813 234.10025944178923 465.8104418011813 227.73025944178923 462.8604418011813 223.66025944178924 C 459.8004418011813 219.59025944178924 456.2704418011813 217.04025944178923 452.28044180118127 215.71025944178925 C 448.2104418011813 214.19025944178924 442.6304418011813 214.73025944178923 439.03044180118127 214.99025944178925 C 435.3904418011813 215.17025944178923 432.7304418011813 215.81025944178924 430.6004418011813 216.93025944178925 C 428.34044180118127 218.01025944178923 426.7904418011813 219.45025944178923 425.8204418011813 221.25025944178924 C 424.6604418011813 222.87025944178924 425.0604418011813 225.89025944178923 424.3804418011813 227.01025944178923 C 423.6204418011813 228.05025944178925 422.6804418011813 228.34025944178924 421.7104418011813 227.73025944178923 C 420.6704418011813 227.01025944178923 419.5504418011813 225.75025944178924 418.3604418011813 223.41025944178924 C 421.1704418011813 244.07025944178923 423.9804418011813 264.7702594417892 426.7904418011813 285.47025944178927 z" id="imagebot_33"/>
  <path stroke="black" stroke-width="0.036" stroke-miterlimit="10" fill-rule="evenodd" d="M 431.5804418011813 237.38025944178924 C 432.0104418011813 235.86025944178925 434.6004418011813 233.27025944178925 437.1204418011813 232.08025944178925 C 439.5704418011813 230.75025944178924 443.2404418011813 229.31025944178924 446.4804418011813 230.14025944178923 C 449.7604418011813 230.93025944178925 453.6404418011813 232.84025944178924 456.34044180118127 237.12025944178924 C 458.8604418011813 241.41025944178924 461.3104418011813 248.93025944178925 461.8904418011813 255.41025944178924 C 462.3604418011813 261.82025944178923 461.78044180118127 270.86025944178925 459.4804418011813 275.1402594417892 C 457.03044180118127 279.24025944178925 451.6604418011813 280.32025944178923 447.9604418011813 280.18025944178925 C 444.2504418011813 279.8902594417892 438.78044180118127 275.72025944178927 437.3704418011813 273.92025944178926 C 435.9704418011813 272.04025944178926 437.1204418011813 269.13025944178924 439.03044180118127 269.3402594417892 C 440.7604418011813 269.5202594417892 445.2204418011813 274.42025944178926 447.9604418011813 275.1402594417892 C 450.6604418011813 275.68025944178925 453.4304418011813 275.00025944178924 455.1604418011813 272.94025944178924 C 456.8104418011813 270.7102594417892 457.6404418011813 267.22025944178927 457.78044180118127 262.61025944178925 C 457.7104418011813 257.93025944178925 456.9204418011813 249.98025944178923 455.4104418011813 245.55025944178925 C 453.8604418011813 240.98025944178923 451.0204418011813 237.63025944178924 448.6804418011813 235.90025944178925 C 446.1904418011813 234.10025944178923 443.3504418011813 234.64025944178923 440.9704418011813 235.43025944178925 C 438.4904418011813 236.26025944178923 435.8204418011813 240.29025944178923 434.2404418011813 240.73025944178923 C 432.6204418011813 240.94025944178924 431.0404418011813 238.85025944178923 431.5804418011813 237.38025944178924 z" id="imagebot_32"/>
  <path stroke="black" stroke-width="0.036" stroke-miterlimit="10" fill-rule="evenodd" d="M 204.1304418011813 217.11025944178925 C 204.1304418011813 224.16025944178924 209.8504418011813 229.89025944178923 216.9104418011813 229.89025944178923 C 223.9604418011813 229.89025944178923 229.6904418011813 224.16025944178924 229.6904418011813 217.11025944178925 C 229.6904418011813 210.05025944178925 223.9604418011813 204.33025944178925 216.9104418011813 204.33025944178925 C 209.8504418011813 204.33025944178925 204.1304418011813 210.05025944178925 204.1304418011813 217.11025944178925 z" id="imagebot_31"/>
  <path fill-rule="evenodd" stroke="black" stroke-width="0.036" stroke-miterlimit="10" fill="white" d="M 210.5704418011813 213.76025944178923 C 210.5704418011813 215.67025944178923 212.1204418011813 217.25025944178924 214.0604418011813 217.25025944178924 C 215.9704418011813 217.25025944178924 217.5204418011813 215.67025944178923 217.5204418011813 213.76025944178923 S 215.9704418011813 210.27025944178925 214.0604418011813 210.27025944178925 C 212.1204418011813 210.27025944178925 210.5704418011813 211.85025944178923 210.5704418011813 213.76025944178923 z" id="imagebot_30"/>
  <path stroke="black" stroke-width="0.036" stroke-miterlimit="10" fill-rule="evenodd" d="M 192.4304418011813 183.27025944178925 C 195.8504418011813 182.08025944178925 202.8304418011813 181.11025944178925 208.1204418011813 180.78025944178924 C 213.3404418011813 180.46025944178925 219.5404418011813 180.78025944178924 223.5004418011813 181.61025944178925 C 227.42044180118128 182.40025944178925 230.6604418011813 184.20025944178923 231.1304418011813 185.46025944178925 C 231.3804418011813 186.65025944178925 228.4604418011813 188.38025944178924 225.1504418011813 188.56025944178924 C 221.6204418011813 188.60025944178923 215.6104418011813 186.08025944178925 210.8604418011813 186.00025944178924 C 205.9604418011813 185.90025944178925 200.5604418011813 187.27025944178925 196.89044180118128 188.02025944178925 C 193.1804418011813 188.74025944178925 190.7704418011813 190.33025944178925 189.2204418011813 190.29025944178923 C 187.6804418011813 190.04025944178923 186.8804418011813 188.20025944178923 187.5304418011813 187.02025944178925 C 188.0004418011813 185.75025944178924 188.9404418011813 184.28025944178924 192.4304418011813 183.27025944178925 z" id="imagebot_29"/>
  <path stroke="black" stroke-width="0.036" stroke-miterlimit="10" fill-rule="evenodd" d="M 276.6304418011813 217.11025944178925 C 276.6304418011813 224.16025944178924 270.9104418011813 229.89025944178923 263.8504418011813 229.89025944178923 C 256.8004418011813 229.89025944178923 251.0704418011813 224.16025944178924 251.0704418011813 217.11025944178925 C 251.0704418011813 210.05025944178925 256.8004418011813 204.33025944178925 263.8504418011813 204.33025944178925 C 270.9104418011813 204.33025944178925 276.6304418011813 210.05025944178925 276.6304418011813 217.11025944178925 z" id="imagebot_28"/>
  <path fill-rule="evenodd" stroke="black" stroke-width="0.036" stroke-miterlimit="10" fill="white" d="M 266.4804418011813 213.51025944178923 C 266.4804418011813 215.42025944178923 264.9004418011813 217.00025944178924 262.9904418011813 217.00025944178924 S 259.5004418011813 215.42025944178923 259.5004418011813 213.51025944178923 S 261.0804418011813 210.05025944178925 262.9904418011813 210.05025944178925 S 266.4804418011813 211.60025944178923 266.4804418011813 213.51025944178923 z" id="imagebot_27"/>
  <path stroke="black" stroke-width="0.036" stroke-miterlimit="10" fill-rule="evenodd" d="M 290.2404418011813 185.54025944178923 C 287.0404418011813 183.95025944178923 280.9204418011813 181.94025944178924 276.2004418011813 181.00025944178924 C 271.3804418011813 179.96025944178925 265.7204418011813 179.49025944178925 262.1604418011813 179.74025944178925 C 258.4904418011813 180.03025944178924 255.2804418011813 181.22025944178924 254.89044180118128 182.48025944178923 C 254.5304418011813 183.59025944178924 256.9104418011813 185.68025944178925 260.0704418011813 186.36025944178925 C 263.2104418011813 186.80025944178925 268.8604418011813 185.25025944178924 273.2904418011813 185.75025944178924 C 277.53044180118127 186.22025944178924 282.5404418011813 188.45025944178923 285.8104418011813 189.68025944178925 C 288.9804418011813 190.79025944178923 291.1104418011813 192.84025944178924 292.5804418011813 192.92025944178923 C 294.0204418011813 192.88025944178924 294.6704418011813 191.19025944178924 294.3804418011813 189.93025944178925 C 294.0204418011813 188.67025944178923 293.1604418011813 186.98025944178923 290.2404418011813 185.54025944178923 z" id="imagebot_26"/>
  <path stroke="black" stroke-width="0.036" stroke-miterlimit="10" fill-rule="evenodd" d="M 234.98044180118129 419.25025944178924 C 225.3304418011813 418.24025944178925 221.48044180118129 418.5302594417892 210.4604418011813 415.18025944178925 C 199.4104418011813 411.76025944178923 181.5904418011813 406.00025944178924 169.3504418011813 399.12025944178924 C 157.1504418011813 392.18025944178925 147.5004418011813 384.62025944178924 137.7804418011813 374.07025944178923 C 128.1004418011813 363.4502594417892 117.91044180118129 348.98025944178926 111.6404418011813 336.23025944178926 C 105.38044180118129 323.4502594417892 101.74044180118129 310.9602594417892 100.4804418011813 298.11025944178925 C 100.3004418011813 295.48025944178926 101.02044180118129 293.07025944178923 102.6404418011813 290.48025944178926 C 104.2304418011813 287.85025944178926 109.5604418011813 284.61025944178925 110.02044180118129 282.8402594417892 C 110.35044180118129 281.0802594417892 107.5404418011813 278.42025944178926 105.0904418011813 279.86025944178925 C 102.57044180118129 281.30025944178925 97.6414418011813 285.76025944178923 95.3014418011813 291.0202594417892 C 92.81744180118129 296.0902594417892 91.41344180118129 305.4502594417892 90.94544180118129 310.35025944178926 C 90.4774418011813 315.17025944178926 91.9894418011813 318.48025944178926 92.85344180118129 319.8902594417892 C 93.6814418011813 321.22025944178927 95.1934418011813 320.72025944178927 95.84144180118129 318.23025944178926 C 96.3454418011813 315.68025944178925 96.4894418011813 311.1402594417892 96.1294418011813 304.62025944178924 C 98.54144180118129 317.30025944178925 102.9004418011813 329.86025944178925 109.74044180118129 342.75025944178924 C 116.5004418011813 355.60025944178926 124.8904418011813 370.29025944178926 136.4104418011813 381.41025944178926 C 147.9704418011813 392.3902594417892 164.9604418011813 401.9002594417892 177.8104418011813 408.38025944178924 C 190.45044180118128 414.7102594417892 202.4004418011813 416.94025944178924 211.5804418011813 419.54025944178926 C 220.5804418011813 422.0202594417892 224.8304418011813 422.60025944178926 231.70044180118128 423.35025944178926 C 238.5404418011813 423.9602594417892 245.4904418011813 423.9602594417892 252.4004418011813 423.35025944178926 C 259.28044180118127 422.60025944178926 263.4604418011813 422.0202594417892 272.5604418011813 419.54025944178926 C 281.6404418011813 416.94025944178924 293.59044180118127 414.7102594417892 306.3304418011813 408.38025944178924 C 318.9704418011813 401.9002594417892 336.1404418011813 392.3902594417892 347.7004418011813 381.41025944178926 C 359.0704418011813 370.29025944178926 367.6004418011813 355.60025944178926 374.4104418011813 342.75025944178924 C 381.1804418011813 329.86025944178925 385.5704418011813 317.30025944178925 388.0204418011813 304.62025944178924 C 387.6604418011813 311.1402594417892 387.6904418011813 315.68025944178925 388.2704418011813 318.23025944178926 C 388.8104418011813 320.72025944178927 390.3604418011813 321.22025944178927 391.2604418011813 319.8902594417892 C 392.0504418011813 318.48025944178926 393.5204418011813 315.17025944178926 393.1604418011813 310.35025944178926 C 392.6204418011813 305.4502594417892 391.2204418011813 296.0902594417892 388.8104418011813 291.0202594417892 C 386.4004418011813 285.76025944178923 381.4604418011813 281.30025944178925 379.0204418011813 279.86025944178925 C 376.4604418011813 278.42025944178926 373.7204418011813 281.0802594417892 374.1204418011813 282.8402594417892 C 374.5504418011813 284.61025944178925 379.7404418011813 287.85025944178926 381.4604418011813 290.48025944178926 C 382.9804418011813 293.07025944178923 383.84044180118127 295.48025944178926 383.6604418011813 298.11025944178925 C 382.4004418011813 310.9602594417892 378.7304418011813 323.4502594417892 372.5004418011813 336.23025944178926 C 366.2004418011813 348.98025944178926 356.0504418011813 363.4502594417892 346.3604418011813 374.07025944178923 C 336.6404418011813 384.62025944178924 326.9604418011813 392.18025944178925 314.7604418011813 399.12025944178924 C 302.5204418011813 406.00025944178924 284.7004418011813 411.76025944178923 273.6504418011813 415.18025944178925 C 262.6304418011813 418.5302594417892 258.8104418011813 418.24025944178925 249.1304418011813 419.25025944178924 C 239.48044180118129 420.29025944178926 244.6604418011813 420.29025944178926 234.98044180118129 419.25025944178924 z" id="imagebot_19"/>
  <path fill-rule="evenodd" d="M 119.6704418011813 92.65725944178924 C 121.4704418011813 100.36025944178924 121.0804418011813 107.45025944178924 118.3404418011813 114.33025944178924 C 115.5304418011813 121.17025944178924 108.4004418011813 127.36025944178924 103.3304418011813 133.48025944178923 C 98.1814418011813 139.42025944178923 94.4374418011813 141.40025944178925 87.9214418011813 150.40025944178925 C 81.26144180118129 159.47025944178924 69.8134418011813 177.72025944178924 64.1254418011813 187.52025944178925 C 58.43744180118129 197.16025944178924 57.9694418011813 203.10025944178923 53.973441801181295 208.11025944178925 C 49.7254418011813 212.93025944178925 43.101441801181295 217.40025944178925 39.6454418011813 216.64025944178923 C 36.189441801181296 215.70025944178923 34.677441801181295 214.80025944178925 33.741441801181296 203.25025944178924 C 32.8414418011813 191.48025944178923 29.745441801181297 165.34025944178924 34.0294418011813 147.05025944178925 C 38.205441801181294 128.62025944178924 51.345441801181295 106.19025944178924 58.5814418011813 94.06125944178925 C 65.6734418011813 82.00025944178924 70.6414418011813 78.68925944178925 76.6894418011813 74.94525944178923 S 88.4614418011813 69.86925944178924 94.4374418011813 71.34525944178924 C 89.6134418011813 64.18125944178924 91.1614418011813 56.62025944178924 98.9374418011813 47.98125944178924 C 106.7504418011813 39.26925944178924 121.5804418011813 28.03725944178924 141.0904418011813 20.11725944178924 C 160.7504418011813 12.16125944178924 188.1104418011813 3.4852594417892395 215.4004418011813 0.8932594417892398 C 242.4704418011813 -1.7707405582107603 279.0404418011813 2.1532594417892397 302.4804418011813 4.45625944178924 C 325.7704418011813 6.725259441789239 338.5204418011813 9.02825944178924 354.4604418011813 14.42925944178924 C 370.2704418011813 19.75625944178924 385.3504418011813 27.02925944178924 396.9404418011813 36.10125944178924 C 408.2504418011813 45.10125944178924 415.2004418011813 55.28925944178924 422.7904418011813 68.06925944178924 C 430.3904418011813 80.74125944178924 438.7404418011813 98.05725944178924 442.7004418011813 111.81025944178924 C 446.59044180118127 125.31025944178924 445.9004418011813 136.11025944178925 446.34044180118127 149.50025944178924 C 446.7304418011813 162.93025944178925 447.8104418011813 179.67025944178923 445.0004418011813 191.94025944178924 C 442.0504418011813 204.15025944178925 433.6304418011813 218.33025944178925 428.8804418011813 222.15025944178925 C 424.0504418011813 225.82025944178923 423.2604418011813 226.36025944178925 416.2004418011813 213.90025944178925 C 408.9304418011813 201.16025944178924 399.2104418011813 179.20025944178923 386.2204418011813 146.91025944178924 C 352.3804418011813 146.87025944178924 322.9604418011813 145.47025944178924 296.4704418011813 142.84025944178924 C 269.9704418011813 140.10025944178923 251.1804418011813 135.71025944178925 228.5704418011813 130.78025944178924 C 205.89044180118128 125.67025944178924 180.0404418011813 119.48025944178924 161.7204418011813 113.03025944178924 C 143.4304418011813 106.59025944178924 129.6104418011813 99.92925944178924 119.6704418011813 92.65725944178924 z" id="imagebot_15"/>
  <path fill-rule="evenodd" stroke="black" stroke-width="0.036" stroke-miterlimit="10" fill="#bf5f00" d="M 106.60044180118129 83.11725944178924 C 103.4004418011813 80.59725944178923 98.7934418011813 77.46525944178924 94.32944180118129 76.63825944178924 C 89.86544180118129 75.55825944178925 85.2214418011813 74.19025944178924 79.71344180118129 77.68225944178924 C 73.8814418011813 81.28225944178924 66.8974418011813 88.77025944178924 60.705441801181294 98.05825944178925 C 54.47744180118129 107.24025944178923 47.205441801181294 121.49025944178923 43.1734418011813 132.65025944178925 C 39.0694418011813 143.74025944178925 37.9534418011813 153.57025944178923 36.7654418011813 164.37025944178924 C 35.54144180118129 175.06025944178924 35.54144180118129 188.89025944178923 36.0814418011813 196.66025944178924 C 36.513441801181294 204.33025944178925 37.089441801181295 209.44025944178924 39.753441801181296 210.45025944178923 C 42.2734418011813 211.35025944178923 46.629441801181294 208.69025944178924 51.4534418011813 202.31025944178924 C 56.241441801181296 195.73025944178923 62.973441801181295 181.40025944178925 68.44544180118129 172.11025944178925 C 73.73744180118129 162.89025944178923 76.9774418011813 155.62025944178924 83.5654418011813 147.23025944178923 C 90.0814418011813 138.74025944178925 101.96044180118129 128.73025944178923 107.5404418011813 121.64025944178924 C 112.8704418011813 114.40025944178925 115.4204418011813 109.58025944178924 116.32044180118129 104.54025944178925 C 117.1504418011813 99.46125944178924 114.6704418011813 95.21325944178923 113.0504418011813 91.64925944178924 C 111.32044180118129 87.97725944178924 109.77044180118129 85.60125944178924 106.60044180118129 83.11725944178924 z" id="imagebot_14"/>
  <path stroke="black" stroke-width="0.036" stroke-miterlimit="10" fill-rule="evenodd" d="M 94.40144180118129 95.68125944178924 C 92.7454418011813 100.86025944178924 90.6934418011813 108.86025944178924 86.44544180118129 116.31025944178924 C 82.1254418011813 123.65025944178925 74.6014418011813 131.39025944178923 69.1294418011813 139.38025944178924 C 63.549441801181295 147.30025944178925 57.0694418011813 154.29025944178923 53.577441801181294 163.40025944178925 C 50.013441801181294 172.40025944178925 48.28544180118129 188.20025944178923 48.10544180118129 192.92025944178923 C 47.817441801181296 197.49025944178925 50.8774418011813 195.11025944178925 52.137441801181296 190.79025944178923 C 53.3254418011813 186.19025944178924 52.3894418011813 174.02025944178925 55.305441801181296 166.53025944178924 C 58.113441801181295 159.08025944178925 64.6654418011813 152.49025944178925 68.9854418011813 146.48025944178923 C 73.2334418011813 140.54025944178923 76.5814418011813 136.47025944178924 80.82944180118129 130.78025944178924 C 85.04144180118129 124.80025944178924 90.6934418011813 118.36025944178924 94.04144180118129 111.59025944178924 C 97.1734418011813 104.79025944178925 99.5494418011813 95.35825944178924 99.8014418011813 90.93025944178925 C 100.02044180118129 86.50125944178924 96.3094418011813 84.70125944178923 95.48144180118129 85.53025944178924 C 94.5454418011813 86.35725944178924 95.8054418011813 90.38925944178924 94.40144180118129 95.68125944178924 z" id="imagebot_13"/>
  <path fill-rule="evenodd" stroke="black" stroke-width="0.036" stroke-miterlimit="10" fill="#bf5f00" d="M 153.4404418011813 105.76025944178924 C 147.7204418011813 103.60025944178923 142.0304418011813 101.22025944178924 136.3804418011813 98.34525944178924 C 130.5404418011813 95.42925944178924 124.8604418011813 92.44125944178924 119.3104418011813 88.69725944178924 C 113.7004418011813 84.80925944178924 107.0404418011813 79.94925944178924 103.2204418011813 75.52125944178924 C 99.2974418011813 71.02125944178924 96.23744180118129 66.77325944178924 96.4174418011813 62.09225944178924 C 96.5254418011813 57.34025944178924 97.1374418011813 53.30925944178924 104.2304418011813 47.22525944178924 C 111.2804418011813 40.96025944178924 124.7504418011813 31.78125944178924 138.7904418011813 25.37225944178924 C 152.7904418011813 18.96425944178924 170.2904418011813 12.48425944178924 187.7804418011813 9.13725944178924 C 205.2804418011813 5.64525944178924 224.9404418011813 5.2842594417892395 242.7204418011813 4.99625944178924 C 260.4704418011813 4.63725944178924 276.8504418011813 5.8962594417892396 293.1204418011813 7.3722594417892395 C 309.2104418011813 8.74025944178924 324.0404418011813 9.53225944178924 338.9804418011813 13.63725944178924 C 354.0004418011813 17.74125944178924 369.9404418011813 25.048259441789238 381.9704418011813 31.81725944178924 C 393.78044180118127 38.51325944178924 402.1304418011813 45.49725944178924 409.4004418011813 53.59725944178924 C 416.5604418011813 61.58825944178924 420.6704418011813 71.59725944178923 424.7704418011813 79.58825944178923 C 428.7704418011813 87.43725944178924 430.6004418011813 92.90825944178924 433.6304418011813 100.58025944178924 C 436.5804418011813 108.17025944178924 440.6104418011813 115.23025944178924 442.4104418011813 125.09025944178924 C 444.0704418011813 134.92025944178923 443.9204418011813 148.46025944178925 443.9204418011813 159.18025944178925 C 443.8504418011813 169.91025944178924 444.03044180118127 179.56025944178924 441.9404418011813 188.81025944178924 C 439.6804418011813 197.92025944178923 434.0204418011813 208.79025944178923 430.8204418011813 213.80025944178925 C 427.6204418011813 218.58025944178925 425.8504418011813 221.10025944178923 422.7604418011813 218.04025944178923 C 419.4804418011813 214.91025944178924 417.4304418011813 207.64025944178923 411.7404418011813 195.26025944178923 C 405.9104418011813 182.66025944178924 398.3904418011813 165.70025944178923 388.4804418011813 143.42025944178923 C 366.34044180118127 143.81025944178924 343.2304418011813 142.73025944178923 317.78044180118127 140.18025944178925 C 292.2204418011813 137.51025944178923 259.3504418011813 131.93025944178925 237.0704418011813 127.86025944178924 C 214.89044180118128 123.65025944178925 199.5204418011813 119.48025944178924 185.5504418011813 115.73025944178924 C 171.48044180118129 112.02025944178924 161.0004418011813 108.75025944178924 153.4404418011813 105.76025944178924 z" id="imagebot_12"/>
  <path stroke="black" stroke-width="0.036" stroke-miterlimit="10" fill-rule="evenodd" d="M 139.2204418011813 46.61325944178924 C 152.2504418011813 44.56125944178924 190.6304418011813 38.29725944178924 219.5004418011813 37.25325944178924 C 248.2604418011813 36.06525944178924 283.9404418011813 38.00925944178924 310.5804418011813 40.02525944178924 C 337.1804418011813 42.14925944178924 364.5804418011813 46.57725944178924 377.6104418011813 49.42125944178924 C 390.2504418011813 52.04925944178924 387.6604418011813 55.32525944178924 386.7904418011813 55.79325944178924 C 385.9304418011813 56.08125944178924 383.4104418011813 53.45325944178924 372.28044180118127 51.50925944178924 C 360.84044180118127 49.38525944178924 342.4004418011813 45.785259441789236 319.3304418011813 43.77025944178924 C 296.0004418011813 41.71725944178924 259.2404418011813 39.12525944178924 234.48044180118129 39.34125944178924 C 209.7804418011813 39.413259441789236 187.8604418011813 42.94225944178924 172.45044180118128 44.66925944178924 C 157.0404418011813 46.32525944178924 148.2204418011813 48.95325944178924 142.6804418011813 49.35025944178924 C 137.0604418011813 49.60125944178924 126.3704418011813 48.59225944178924 139.2204418011813 46.61325944178924 z" id="imagebot_11"/>
  <path stroke="black" stroke-width="0.036" stroke-miterlimit="10" fill-rule="evenodd" d="M 135.48044180118129 56.29625944178924 C 149.8404418011813 59.46425944178924 187.7504418011813 70.48125944178923 216.0104418011813 76.56525944178924 C 244.2704418011813 82.43325944178925 280.09044180118127 88.66125944178924 303.7404418011813 91.64925944178924 C 327.2504418011813 94.56525944178924 340.8904418011813 94.78125944178925 356.34044180118127 94.09725944178923 C 371.6004418011813 93.30525944178925 387.7304418011813 88.48125944178923 395.4304418011813 87.40125944178924 C 403.03044180118127 86.32125944178924 403.0704418011813 86.53725944178925 402.0604418011813 87.50825944178924 C 400.9404418011813 88.40825944178924 397.2704418011813 90.64125944178924 389.1004418011813 92.54825944178924 C 380.7104418011813 94.34925944178924 369.0804418011813 98.12825944178924 352.7004418011813 98.45225944178924 C 336.2104418011813 98.59725944178923 312.6004418011813 96.76125944178924 291.2904418011813 94.06025944178924 C 269.8704418011813 91.36025944178924 249.92044180118128 87.68825944178924 225.6204418011813 82.50325944178924 C 201.1804418011813 77.14025944178924 162.4104418011813 66.84425944178923 146.39044180118128 62.70325944178924 C 130.4704418011813 58.49125944178924 132.3804418011813 59.03125944178924 130.5804418011813 57.95125944178924 C 128.67044180118128 56.80025944178924 121.1804418011813 53.20125944178924 135.48044180118129 56.29625944178924 z" id="imagebot_10"/>
  <path stroke="black" stroke-width="0.036" stroke-miterlimit="10" fill-rule="evenodd" d="M 126.3004418011813 72.46025944178923 C 140.1204418011813 76.56425944178923 180.4004418011813 93.16025944178924 207.98044180118129 100.72025944178924 C 235.48044180118129 108.10025944178923 265.7204418011813 113.39025944178924 289.9504418011813 116.60025944178923 C 314.0404418011813 119.58025944178924 333.5504418011813 119.15025944178925 351.4004418011813 119.19025944178924 C 369.1204418011813 119.15025944178925 387.7604418011813 116.34025944178924 395.6804418011813 116.60025944178923 C 403.4604418011813 116.67025944178924 404.3604418011813 119.01025944178924 397.8104418011813 120.16025944178924 C 390.9304418011813 121.17025944178924 374.1204418011813 123.36025944178924 355.7204418011813 123.29025944178925 C 337.1504418011813 123.18025944178925 311.2304418011813 122.25025944178924 288.1204418011813 119.66025944178924 C 264.9304418011813 116.81025944178924 241.0604418011813 112.64025944178924 218.4604418011813 107.13025944178924 C 195.8804418011813 101.51025944178924 169.3204418011813 91.90025944178925 153.8704418011813 86.75225944178923 C 138.3604418011813 81.64125944178924 130.8004418011813 78.72525944178923 126.1904418011813 76.45625944178924 C 121.5104418011813 73.97325944178924 112.6204418011813 68.42925944178924 126.3004418011813 72.46025944178923 z" id="imagebot_9"/>
  <path stroke="black" stroke-width="0.036" stroke-miterlimit="10" fill-rule="evenodd" d="M 418.0004418011813 170.16025944178924 C 419.9504418011813 174.02025944178925 424.1604418011813 182.73025944178923 425.6404418011813 187.12025944178924 C 426.9304418011813 191.40025944178925 426.7904418011813 195.47025944178924 426.3204418011813 195.98025944178923 C 425.8204418011813 196.34025944178924 425.1004418011813 194.25025944178924 422.9004418011813 189.71025944178925 C 420.6304418011813 185.03025944178924 416.4204418011813 175.96025944178925 412.7504418011813 168.72025944178924 C 408.8304418011813 161.45025944178923 402.3804418011813 151.26025944178923 400.3704418011813 146.76025944178923 C 398.3904418011813 142.26025944178923 400.0104418011813 140.79025944178923 401.34044180118127 141.94025944178924 C 402.7404418011813 143.02025944178925 405.9104418011813 149.39025944178923 408.2104418011813 153.14025944178923 C 410.3704418011813 156.84025944178924 412.3604418011813 160.88025944178924 414.1504418011813 163.86025944178925 C 415.6304418011813 166.64025944178923 416.1704418011813 166.28025944178924 418.0004418011813 170.16025944178924 z" id="imagebot_8"/>
  <title>imagebot_2</title>
 </g>
 <metadata>image/svg+xmlOpenclipartMan Face Cartoon2006-10-18T11:25:29Uploaded by "World Label" for conversion to SVG and publication on OCAL.https://openclipart.org/detail/736/man-face-cartoon-by-gerald_g-736Gerald_Gcartoonexternalsourcefacemanpeopleremixworldlabel</metadata>
</svg>